<svg xmlns="http://www.w3.org/2000/svg" width="400" height="400">
 <!-- Created with Method Draw - http://github.com/duopixel/Method-Draw/ -->
 <g>
  <title>Layer 1</title>  
 <g stroke="null" id="svg_5" transform="matrix(1.1010200977392668,0,0,1.048285604011872,-3056.5404962139705,-2895.5199748792456) ">    
   <path stroke="null" id="svg_10" fill="#EEB248" d="m3135.802111,2950.887784c0,98.458 -80.128,178.586 -178.637,178.586c-32.41,0 -62.874,-8.704 -89.088,-23.859c-27.187,-15.718 -49.92,-38.451 -65.638,-65.638c-15.155,-26.214 -23.859,-56.678 -23.859,-89.088c0,-98.509 80.128,-178.586 178.586,-178.586c41.267,0 79.309,14.029 109.568,37.581c11.725,9.165 22.323,19.712 31.437,31.437c23.602,30.258 37.631,68.3 37.631,109.567z"/>
   <path stroke="null" id="svg_11" fill="#F8DAB2" d="m2957.186111,3102.248784c-83.46,0 -151.363,-67.905 -151.363,-151.37c0,-83.465 67.902,-151.37 151.363,-151.37c83.47,0 151.37,67.905 151.37,151.37c0,83.465 -67.9,151.37 -151.37,151.37z"/>
   <path stroke="null" id="svg_12" fill="#FFFFFF" d="m3097.566111,2950.877784c0,77.525 -62.845,140.372 -140.38,140.372c-77.52,0 -140.365,-62.848 -140.365,-140.372s62.845,-140.372 140.365,-140.372c77.535,0 140.38,62.847 140.38,140.372z"/>
   <g stroke="null" id="svg_13">
       <g stroke="null" id="svg_14">
        <path stroke="null" id="svg_15" fill="#F1B674" d="m2884.276111,3030.038784c-2.635,2.635 -3.95,6.307 -3.59,10.017c0.355,3.707 2.445,6.3 5.445,9.143c0,0 9.675,10.14 23.725,15.96c14.05,5.82 28.06,5.487 28.06,5.487c3.88,0.008 7.44,-0.24 10.315,-2.61c2.88,-2.37 4.545,-5.898 4.545,-9.625l-0.005,-89.342c0,-1.263 -0.755,-2.398 -1.92,-2.88c-1.165,-0.48 -2.505,-0.215 -3.395,0.675l-63.18,63.175z"/>
        <path stroke="null" id="svg_16" fill="#F1B674" d="m3030.106111,2871.715784c2.635,-2.635 3.95,-6.305 3.6,-10.015c-0.365,-3.708 -2.45,-6.3 -5.455,-9.143c0,0 -9.67,-10.142 -23.72,-15.96c-14.05,-5.822 -28.065,-5.487 -28.065,-5.487c-3.88,-0.008 -7.44,0.24 -10.315,2.61c-2.875,2.37 -4.54,5.898 -4.54,9.625l0,89.342c0,1.26 0.76,2.398 1.925,2.88c1.16,0.48 2.5,0.215 3.395,-0.675l63.175,-63.177z"/>
       </g>
       <g stroke="null" id="svg_17">
        <path stroke="null" id="svg_18" fill="#F1B674" d="m2849.658111,2955.295784c-3.73,0 -7.255,1.663 -9.622,4.54c-2.373,2.878 -2.725,6.185 -2.615,10.322c0,0 -0.335,14.007 5.485,28.058c5.822,14.047 15.97,23.72 15.97,23.72c2.738,2.747 5.425,5.09 9.138,5.45c3.705,0.36 7.382,-0.957 10.012,-3.592l63.185,-63.178c0.89,-0.892 1.155,-2.23 0.67,-3.398c-0.48,-1.162 -1.615,-1.923 -2.88,-1.923l-89.343,0l0,0.001z"/>
        <path stroke="null" id="svg_19" fill="#F1B674" d="m3064.726111,2946.460784c3.725,0 7.26,-1.668 9.62,-4.54c2.37,-2.883 2.73,-6.185 2.615,-10.322c0,0 0.335,-14.007 -5.485,-28.058c-5.825,-14.05 -15.965,-23.717 -15.965,-23.717c-2.735,-2.75 -5.43,-5.095 -9.145,-5.452c-3.705,-0.36 -7.38,0.957 -10.02,3.592l-63.17,63.178c-0.89,0.887 -1.16,2.23 -0.675,3.398c0.48,1.162 1.625,1.923 2.88,1.923l89.345,0l0,-0.002z"/>
       </g>
       <g stroke="null" id="svg_20">
        <path stroke="null" id="svg_21" fill="#F1B674" d="m2878.026111,2877.962784c-2.63,-2.637 -6.307,-3.952 -10.012,-3.592c-3.713,0.357 -6.298,2.447 -9.138,5.45c0,0 -10.147,9.67 -15.97,23.718c-5.82,14.052 -5.485,28.06 -5.485,28.06c0,3.883 0.242,7.44 2.615,10.322c2.368,2.873 5.893,4.54 9.622,4.54l89.343,0c1.265,0 2.4,-0.76 2.88,-1.925c0.485,-1.165 0.22,-2.508 -0.675,-3.395l-63.18,-63.178z"/>
        <path stroke="null" id="svg_22" fill="#F1B674" d="m3036.346111,3023.793784c2.64,2.632 6.315,3.952 10.02,3.592c3.715,-0.36 6.305,-2.447 9.145,-5.452c0,0 10.14,-9.67 15.965,-23.72c5.82,-14.048 5.485,-28.055 5.485,-28.055c0.005,-3.882 -0.245,-7.445 -2.615,-10.322c-2.36,-2.878 -5.895,-4.543 -9.62,-4.543l-89.345,0.003c-1.255,0 -2.395,0.76 -2.88,1.923c-0.485,1.165 -0.22,2.505 0.675,3.398l63.17,63.176z"/>
       </g>
       <g stroke="null" id="svg_23">
        <path stroke="null" id="svg_24" fill="#F1B674" d="m2952.771111,2843.342784c0.005,-3.725 -1.66,-7.252 -4.54,-9.625c-2.875,-2.37 -6.175,-2.722 -10.315,-2.61c0,0 -14.01,-0.335 -28.06,5.482c-14.05,5.822 -23.725,15.967 -23.725,15.967c-2.745,2.738 -5.09,5.43 -5.445,9.14c-0.36,3.712 0.955,7.383 3.59,10.017l63.18,63.173c0.89,0.895 2.23,1.158 3.395,0.677c1.165,-0.48 1.92,-1.62 1.92,-2.878l0,-89.343z"/>
        <path stroke="null" id="svg_25" fill="#F1B674" d="m2961.611111,3058.410784c0,3.727 1.665,7.255 4.54,9.625c2.875,2.367 6.185,2.725 10.315,2.61c0,0 14.015,0.333 28.065,-5.487c14.05,-5.82 23.72,-15.96 23.72,-15.96c2.75,-2.743 5.09,-5.435 5.455,-9.145c0.35,-3.707 -0.965,-7.38 -3.6,-10.015l-63.175,-63.178c-0.895,-0.887 -2.235,-1.157 -3.395,-0.675c-1.165,0.482 -1.925,1.617 -1.925,2.88l0,89.345z"/>
       </g>
    </g>
  </g>
</g>
</svg>